<?xml version="1.0" standalone="no"?><!DOCTYPE svg PUBLIC "-//W3C//DTD SVG 1.1//EN" "http://www.w3.org/Graphics/SVG/1.1/DTD/svg11.dtd"><svg t="1744850370327" class="icon" viewBox="0 0 1024 1024" version="1.1" xmlns="http://www.w3.org/2000/svg" p-id="53997" xmlns:xlink="http://www.w3.org/1999/xlink" width="200" height="200"><path d="M789.211429 341.211429h-234.422858V244.297143a85.211429 85.211429 0 1 0-85.577142 0v96.914286H234.788571a85.577143 85.577143 0 0 0-85.577142 85.577142v426.422858a85.577143 85.577143 0 0 0 85.577142 85.577142h554.422858a85.577143 85.577143 0 0 0 85.577142-85.577142V426.788571a85.577143 85.577143 0 0 0-85.577142-85.577142z m0 512H234.788571V426.788571h554.422858z" p-id="53998" fill="#7342CC"></path><path d="M405.211429 554.788571a42.788571 42.788571 0 1 0-42.422858 42.422858 42.422857 42.422857 0 0 0 42.422858-42.422858zM661.211429 597.211429a42.788571 42.788571 0 1 0-42.422858-42.422858 42.422857 42.422857 0 0 0 42.422858 42.422858zM384 725.211429A42.788571 42.788571 0 0 0 426.788571 768h170.422858a42.788571 42.788571 0 1 0 0-85.211429h-170.422858a42.422857 42.422857 0 0 0-42.788571 42.422858zM85.211429 512a42.422857 42.422857 0 0 0-42.422858 42.788571v170.422858a42.788571 42.788571 0 1 0 85.211429 0v-170.422858A42.788571 42.788571 0 0 0 85.211429 512zM938.788571 512a42.788571 42.788571 0 0 0-42.788571 42.788571v170.422858a42.788571 42.788571 0 1 0 85.211429 0v-170.422858A42.422857 42.422857 0 0 0 938.788571 512z" p-id="53999" fill="#7342CC"></path></svg>