<?xml version="1.0" standalone="no"?><!DOCTYPE svg PUBLIC "-//W3C//DTD SVG 1.1//EN" "http://www.w3.org/Graphics/SVG/1.1/DTD/svg11.dtd"><svg t="1744780906731" class="icon" viewBox="0 0 1024 1024" version="1.1" xmlns="http://www.w3.org/2000/svg" p-id="36795" xmlns:xlink="http://www.w3.org/1999/xlink" width="200" height="200"><path d="M159.205467 541.580712" fill="#ffffff" p-id="36796"></path><path d="M696.596763 316.704059c-49.347918-49.365314-114.963335-76.532047-184.76919-76.532047-69.790506 0-135.404899 27.166733-184.752818 76.532047-49.347918 49.331545-76.532047 114.963335-76.532047 184.736445 0 46.613644 12.441357 92.367711 35.963073 132.340097 20.540825 34.901905 49.033763 64.686255 82.910315 86.750783L369.416096 878.685403c0 33.196053 27.01733 60.198034 60.214407 60.198034l164.078962 0c33.214473 0 60.231803-27.001981 60.231803-60.198034L653.941268 720.731952c33.958416-22.050202 62.534242-51.817156 83.140559-86.769202 23.589254-40.021505 36.046984-85.841064 36.046984-132.522246C773.128811 431.667394 745.944682 366.035604 696.596763 316.704059L696.596763 316.704059zM586.62 868.448248 436.886767 868.448248c-6.708795 0-12.17632-4.919033-12.17632-10.966773l0-59.171658 174.08485 0 0 59.171658C598.795297 863.530238 593.345168 868.448248 586.62 868.448248L586.62 868.448248zM674.714384 597.850274c-16.547885 28.062126-40.22105 51.517327-68.431555 67.852364l-10.038634 5.828752 0 66.328661L427.129542 737.860051l0-66.49239-9.972119-5.798053c-28.145014-16.335037-51.765991-39.806611-68.26578-67.853387-16.996093-28.889981-25.974581-61.953004-25.974581-95.64843 0-50.457182 19.646456-97.899704 55.344492-133.598764 35.665291-35.681664 83.124186-55.311747 133.566018-55.311747 50.457182 0 97.9171 19.630083 133.582391 55.311747 35.698037 35.698037 55.344492 83.141582 55.344492 133.598764C700.75548 535.829731 691.760618 568.926524 674.714384 597.850274L674.714384 597.850274z" fill="#ffffff" p-id="36797"></path><path d="M515.177877 183.928033c20.446681 0 37.030381-11.45182 37.030381-25.558096L552.208259 56.18258c0-14.121626-16.582677-25.559119-37.030381-25.559119-20.449751 0-37.052894 11.437493-37.052894 25.559119l0 102.186334C478.124983 172.47519 494.728126 183.928033 515.177877 183.928033L515.177877 183.928033 515.177877 183.928033z" fill="#ffffff" p-id="36798"></path><path d="M749.451552 264.798898c14.458293 14.458293 34.281781 18.085914 44.25697 8.111748l72.256674-72.256674c9.985422-9.985422 6.346545-29.798676-8.111748-44.257993-14.46034-14.459317-34.288944-18.113543-44.274366-8.128121l-72.256674 72.256674C731.348242 230.499721 734.991212 250.338558 749.451552 264.798898L749.451552 264.798898 749.451552 264.798898z" fill="#ffffff" p-id="36799"></path><path d="M281.874297 265.041422c14.459317-14.458293 18.086937-34.282804 8.112772-44.25697l-72.257697-72.256674c-9.985422-9.985422-29.798676-6.347568-44.25697 8.111748-14.459317 14.459317-18.113543 34.287921-8.128121 44.273343l72.257697 72.256674C247.576143 283.143709 267.414981 279.500738 281.874297 265.041422L281.874297 265.041422 281.874297 265.041422z" fill="#ffffff" p-id="36800"></path><path d="M858.924849 842.091974c14.46034-14.458293 18.086937-34.282804 8.113795-44.25697l-72.257697-72.256674c-9.985422-9.986445-29.797653-6.346545-44.25697 8.111748-14.46034 14.459317-18.113543 34.288944-8.127098 44.273343l72.256674 72.257697C824.627718 860.19426 844.464509 856.55129 858.924849 842.091974L858.924849 842.091974 858.924849 842.091974z" fill="#ffffff" p-id="36801"></path><path d="M185.250656 499.884055c0-20.447704-11.45182-37.030381-25.558096-37.030381l-102.187357 0c-14.121626 0-25.559119 16.582677-25.559119 37.030381 0 20.448728 11.437493 37.053917 25.559119 37.053917l102.187357-0.001023C173.797813 536.936949 185.250656 520.333806 185.250656 499.884055L185.250656 499.884055 185.250656 499.884055z" fill="#ffffff" p-id="36802"></path><path d="M998.410694 499.884055c0-20.447704-11.45182-37.030381-25.559119-37.030381l-102.186334 0c-14.122649 0-25.560142 16.582677-25.560142 37.030381 0 20.448728 11.437493 37.053917 25.560142 37.053917l102.186334-0.001023C986.957851 536.936949 998.410694 520.333806 998.410694 499.884055L998.410694 499.884055 998.410694 499.884055z" fill="#ffffff" p-id="36803"></path><path d="M281.864064 734.753293c-14.458293-14.458293-34.282804-18.086937-44.25697-8.112772l-72.256674 72.256674c-9.986445 9.986445-6.346545 29.798676 8.111748 44.25697 14.459317 14.46034 34.287921 18.114566 44.274366 8.128121l72.256674-72.256674C299.966351 769.050424 296.324404 749.213633 281.864064 734.753293L281.864064 734.753293 281.864064 734.753293z" fill="#ffffff" p-id="36804"></path><path d="M457.411219 307.812551" fill="#ffffff" p-id="36805"></path></svg>