<?xml version="1.0" standalone="no"?><!DOCTYPE svg PUBLIC "-//W3C//DTD SVG 1.1//EN" "http://www.w3.org/Graphics/SVG/1.1/DTD/svg11.dtd"><svg t="1744780834505" class="icon" viewBox="0 0 1024 1024" version="1.1" xmlns="http://www.w3.org/2000/svg" p-id="35674" xmlns:xlink="http://www.w3.org/1999/xlink" width="200" height="200"><path d="M568.888889 739.555556H455.111111v113.777777h113.777778v-113.777777z m227.555555-170.666667h-113.777777v113.777778h113.777777v-113.777778z m-227.555555 0H455.111111v113.777778h113.777778v-113.777778z m341.333333-455.111111h-113.777778V0h-113.777777v113.777778H341.333333V0H227.555556v113.777778H113.777778a113.777778 113.777778 0 0 0-113.777778 113.777778v682.666666a113.777778 113.777778 0 0 0 113.777778 113.777778h796.444444a113.777778 113.777778 0 0 0 113.777778-113.777778V227.555556a113.777778 113.777778 0 0 0-113.777778-113.777778z m0 796.444444H113.777778V512h796.444444v398.222222z m0-512H113.777778V227.555556h113.777778v113.777777h113.777777V227.555556h341.333334v113.777777h113.777777V227.555556h113.777778v170.666666zM341.333333 568.888889H227.555556v113.777778h113.777777v-113.777778z m0 170.666667H227.555556v113.777777h113.777777v-113.777777z m455.111111 0h-113.777777v113.777777h113.777777v-113.777777z" fill="#ffffff" p-id="35675"></path></svg>