<?xml version="1.0" standalone="no"?><!DOCTYPE svg PUBLIC "-//W3C//DTD SVG 1.1//EN" "http://www.w3.org/Graphics/SVG/1.1/DTD/svg11.dtd"><svg t="1744781220244" class="icon" viewBox="0 0 1024 1024" version="1.1" xmlns="http://www.w3.org/2000/svg" p-id="43359" xmlns:xlink="http://www.w3.org/1999/xlink" width="200" height="200"><path d="M851.501 443.439c0.317-5.345 0.804-10.652 0.804-16.07 0-147.83-119.83-267.666-267.678-267.666-106.602 0-198.378 62.463-241.429 152.649-20.879-16.193-47.029-25.93-75.498-25.93-68.19 0-123.48 55.289-123.48 123.474 0 12.811 1.952 25.173 5.576 36.789-53.155 31.616-86.463 89.454-86.463 155.796 0 99.193 80.771 179.64 180.922 181.168l86.484-5.363-57.328-65.729c-24.541-29.334-30.362-65.326-15.572-96.967 14.777-31.63 46.432-50.11 84.675-50.11h38.401v-98.49c0-59.181 49.409-112.231 108.604-112.231h37.438c59.195 0 104.331 53.05 104.331 112.231v98.49h42.675c38.242 0 69.898 19.85 84.674 51.478 14.791 31.64 8.971 65.785-15.594 95.142l-57.305 66.187s94.461 3.225 97.732 3.225c97.867 0 177.197-77.959 177.197-175.82 0-73.764-45.076-135.578-109.166-162.253z" p-id="43360" fill="#ffffff"></path><path d="M673.966 641.632H556.178V466.989c0-17.79-11.414-38.166-29.219-38.166h-37.438c-17.804 0-33.493 20.374-33.493 38.166v174.642H342.517c-17.804 0-23.015 11.532-11.593 25.188l156.535 187.147c5.724 6.821 13.253 10.33 20.781 10.33 7.53 0 15.059-3.369 20.78-10.19l156.536-187.31c11.423-13.654 6.212-25.164-11.59-25.164z" p-id="43361" fill="#ffffff"></path></svg>