<?xml version="1.0" standalone="no"?><!DOCTYPE svg PUBLIC "-//W3C//DTD SVG 1.1//EN" "http://www.w3.org/Graphics/SVG/1.1/DTD/svg11.dtd"><svg t="1744781285690" class="icon" viewBox="0 0 1024 1024" version="1.1" xmlns="http://www.w3.org/2000/svg" p-id="45477" xmlns:xlink="http://www.w3.org/1999/xlink" width="200" height="200"><path d="M96.987429 96.987429v637.988571h189.988571v192l237.641143-192h402.358857V96.987429H96.987429z m64 64h701.988571v509.988571h-360.96l-151.04 122.038857v-122.038857H160.987429V160.987429z" fill="#ffffff" p-id="45478"></path><path d="M335.981714 424.996571m-46.006857 0a46.006857 46.006857 0 1 0 92.013714 0 46.006857 46.006857 0 1 0-92.013714 0Z" fill="#ffffff" p-id="45479"></path><path d="M512 424.996571m-46.006857 0a46.006857 46.006857 0 1 0 92.013714 0 46.006857 46.006857 0 1 0-92.013714 0Z" fill="#ffffff" p-id="45480"></path><path d="M687.981714 424.996571m-46.006857 0a46.006857 46.006857 0 1 0 92.013714 0 46.006857 46.006857 0 1 0-92.013714 0Z" fill="#ffffff" p-id="45481"></path></svg>