<?xml version="1.0" standalone="no"?><!DOCTYPE svg PUBLIC "-//W3C//DTD SVG 1.1//EN" "http://www.w3.org/Graphics/SVG/1.1/DTD/svg11.dtd"><svg t="1744773675491" class="icon" viewBox="0 0 1024 1024" version="1.1" xmlns="http://www.w3.org/2000/svg" p-id="19294" xmlns:xlink="http://www.w3.org/1999/xlink" width="200" height="200"><path d="M363.956 656.679l197.819-56.243-141.576-139.765-56.243 196.008z m527.903-383.87L750.413 132.912 440.11 440.76l141.446 139.895L891.86 272.808z m-41.373 519.627c0 48.873-39.693 88.566-88.566 88.566H232.336c-48.873 0-88.565-39.693-88.565-88.566V262.853c0-48.873 39.692-88.566 88.565-88.566h353.358l88.565-88.566H203.375c-81.067 0-147.265 66.198-147.265 147.394v588.283c0 81.067 66.198 147.265 147.265 147.265h588.282c81.067 0 147.265-66.198 147.265-147.265V350.513l-88.566 88.566v353.357h0.13z m106.796-637.155l-88.566-87.66c-14.869-14.87-38.917-14.094-54.562 1.68l-42.15 42.15 141.318 139.765 42.15-42.15c15.773-14.868 16.678-39.692 1.81-53.785z" fill="#ffffff" p-id="19295"></path></svg>