<?xml version="1.0" standalone="no"?><!DOCTYPE svg PUBLIC "-//W3C//DTD SVG 1.1//EN" "http://www.w3.org/Graphics/SVG/1.1/DTD/svg11.dtd"><svg t="1744780730030" class="icon" viewBox="0 0 1024 1024" version="1.1" xmlns="http://www.w3.org/2000/svg" p-id="31482" xmlns:xlink="http://www.w3.org/1999/xlink" width="200" height="200"><path d="M839.936 285.696c5.2736-5.2224 11.1616-11.1616 15.0016-17.92 28.7744-35.6864 32.2048-89.7536 8.0384-128.9728-24.2688-39.4752-60.3136-59.5456-107.0592-59.5456H177.2544c-11.2128 0-22.784 0-32.8704 3.1744a117.3504 117.3504 0 0 0-63.6928 41.1648A117.76 117.76 0 0 0 54.784 196.608c0 33.792 12.9024 63.7952 36.352 84.48a17825.5872 17825.5872 0 0 1 220.5696 217.9584v237.2608l0.1024 1.9968c3.8912 31.232 27.648 48.2816 56.32 35.9424l0.512-0.2048c15.5648-7.7824 24.4736-23.3984 24.4736-42.9056V487.168c0-16.4864-5.0688-29.9008-15.0528-39.936-35.9424-35.84-71.3216-73.216-105.472-109.312a5866.8544 5866.8544 0 0 0-109.8752-113.7664L160.768 222.208l-2.2528-1.1264a21.2992 21.2992 0 0 1-2.56-3.072 55.1424 55.1424 0 0 0-2.9184-3.5328c-6.6048-8.448-7.9872-15.616-4.9152-25.2416 5.3248-12.1344 16.0768-26.0096 29.0816-26.0096h583.8336c7.1168 0 13.9776 3.84 19.3024 10.8544 6.912 9.0624 9.472 20.992 6.656 31.488-1.4848 5.7856-3.8912 8.3968-11.1616 15.6672-80.384 77.824-157.184 154.624-238.4896 235.8784l-0.4608 0.4608c-8.192 8.192-17.664 20.1728-17.664 39.936v409.9584c0 5.0176 0 19.2512 10.3936 30.6176 0 0 3.1232 7.1168 16.7424 12.288 16.7936 6.4 33.1776-0.9216 33.1776-0.9216l4.3008-3.1744c16.7936-12.5952 16.7936-32.256 16.7936-44.032V514.56c40.2432-40.0896 81.92-79.104 122.1632-116.8384 41.0624-38.4 79.872-74.752 117.0944-112.0256z m89.8048 525.312h-220.5696a36.4544 36.4544 0 0 0-36.8128 36.864v10.3424c0 23.04 18.7392 36.864 36.864 36.864h220.5184c23.04 0 36.864-18.7392 36.864-36.864v-10.3936c0-22.016-14.848-36.864-36.864-36.864z m0-132.352h-220.5696a36.4544 36.4544 0 0 0-36.8128 36.864v7.7824c0 23.04 18.7392 36.8128 36.864 36.8128h220.5184c23.04 0 36.864-18.7392 36.864-36.864v-7.7312a36.4544 36.4544 0 0 0-36.864-36.864z m0-127.1296h-220.5696a36.4544 36.4544 0 0 0-36.8128 36.864v5.12c0 23.04 18.7392 36.864 36.864 36.864h220.5184c23.04 0 36.864-18.7392 36.864-36.864v-5.12c0-22.016-14.848-36.864-36.864-36.864z" fill="#ffffff" p-id="31483"></path></svg>