<?xml version="1.0" standalone="no"?><!DOCTYPE svg PUBLIC "-//W3C//DTD SVG 1.1//EN" "http://www.w3.org/Graphics/SVG/1.1/DTD/svg11.dtd"><svg t="1744781418593" class="icon" viewBox="0 0 1060 1024" version="1.1" xmlns="http://www.w3.org/2000/svg" p-id="48796" xmlns:xlink="http://www.w3.org/1999/xlink" width="207.03125" height="200"><path d="M0.109714 987.428571H0c9.581714-223.817143 194.048-402.285714 420.205714-402.285714 226.121143 0 410.587429 178.468571 420.169143 402.285714h-0.950857a36.571429 36.571429 0 0 1-73.142857 0h-0.182857c-9.764571-182.857143-161.133714-328.118857-346.441143-328.118857C234.422857 659.309714 83.017143 804.571429 73.252571 987.428571a36.571429 36.571429 0 0 1-73.142857 0z m976.896-87.844571l-0.365714 0.073143a623.177143 623.177143 0 0 0-66.962286-189.001143c-43.264-77.787429-128.585143-139.593143-211.236571-172.251429 3.766857-3.328 8.411429-8.009143 14.994286-15.725714 11.008-13.056 20.589714-24.393143 31.963428-44.8l0.365714 0.146286A382.171429 382.171429 0 0 0 804.132571 274.285714c0-30.646857-3.584-60.452571-10.349714-89.051428a36.571429 36.571429 0 1 1 70.692572-18.505143h0.073142c8.338286 34.486857 12.726857 70.509714 12.726858 107.556571 0 86.966857-24.246857 168.228571-66.413715 237.458286 68.754286 41.728 126.902857 98.523429 164.864 166.217143 35.401143 63.158857 61.074286 136.411429 73.764572 211.382857h-0.146286a36.571429 36.571429 0 0 1-72.411429 10.24zM420.205714 548.571429a274.285714 274.285714 0 1 1 0-548.571429 274.285714 274.285714 0 0 1 0 548.571429z m0-73.142858a201.142857 201.142857 0 1 0 0-402.285714 201.142857 201.142857 0 0 0 0 402.285714z" fill="#FFFFFF" p-id="48797"></path></svg>