<?xml version="1.0" standalone="no"?><!DOCTYPE svg PUBLIC "-//W3C//DTD SVG 1.1//EN" "http://www.w3.org/Graphics/SVG/1.1/DTD/svg11.dtd"><svg t="1744850465892" class="icon" viewBox="0 0 1024 1024" version="1.1" xmlns="http://www.w3.org/2000/svg" p-id="55073" xmlns:xlink="http://www.w3.org/1999/xlink" width="200" height="200"><path d="M650.05504 182.08l204.544 204.032 32.64-32.96a73.216 73.216 0 0 0-0.576-103.36h0.064L786.37504 149.632A74.24 74.24 0 0 0 734.15104 128h-0.128c-19.392 0-37.632 7.488-51.328 21.12l-32.64 32.96zM568.51904 254.592L781.76704 467.2l51.84-48.448L620.35904 206.08l-51.84 48.512z m-26.368 29.952a1.28 1.28 0 0 0-0.96 0.384l-343.68 339.84-68.288 245.184a28.48 28.48 0 0 0 27.392 36.672c2.368-0.512 5.504-0.384 8.192-1.152l245.376-67.776 344.32-340.032v-1.856l-46.656-46.464-123.008-120.96-41.792-43.52a1.408 1.408 0 0 0-0.896-0.32z" fill="#0B67EC" p-id="55074"></path></svg>