<?xml version="1.0" standalone="no"?><!DOCTYPE svg PUBLIC "-//W3C//DTD SVG 1.1//EN" "http://www.w3.org/Graphics/SVG/1.1/DTD/svg11.dtd"><svg t="1744778783698" class="icon" viewBox="0 0 1098 1024" version="1.1" xmlns="http://www.w3.org/2000/svg" p-id="27107" xmlns:xlink="http://www.w3.org/1999/xlink" width="214.453125" height="200"><path d="M840.35 173.429v735.951c0 6.814 0 10.221-3.406 17.035 0 3.405 0 6.814-3.406 6.814-10.22 17.035-23.849 27.258-40.887 27.258h-3.405c-3.405 0-6.814 0-13.629-3.406-3.405 0-6.814-3.406-10.22-3.406l-538.335-344.125v275.982c0 40.886-30.663 78.366-68.143 78.367s-68.143-34.073-68.143-78.367v-691.658c0-40.886 30.663-78.366 68.143-78.367s68.143 34.073 68.143 78.367v275.982l538.335-347.533c3.405 0 6.814-3.406 10.22-3.406s6.814-3.406 13.629-3.406h3.405c17.036 0 34.073 10.22 40.887 27.258 0 3.405 0 3.405 3.406 6.814v3.405c3.406 6.814 3.406 10.22 3.406 17.035-3.406 3.406 0 3.405 0 3.405zM738.133 810.577v-541.743l-419.085 269.168 419.085 272.575z" p-id="27108" fill="#ffffff"></path></svg>