<?xml version="1.0" standalone="no"?><!DOCTYPE svg PUBLIC "-//W3C//DTD SVG 1.1//EN" "http://www.w3.org/Graphics/SVG/1.1/DTD/svg11.dtd"><svg t="1744780700798" class="icon" viewBox="0 0 1025 1024" version="1.1" xmlns="http://www.w3.org/2000/svg" p-id="30456" xmlns:xlink="http://www.w3.org/1999/xlink" width="200.1953125" height="200"><path d="M1009.371429 943.542857l-263.314286-263.314286c58.514286-73.142857 95.085714-160.914286 95.085714-263.314285C841.142857 190.171429 650.971429 0 416.914286 0 190.171429 0 0 190.171429 0 416.914286s190.171429 416.914286 416.914286 416.914285c102.4 0 190.171429-36.571429 263.314285-95.085714l263.314286 263.314286c7.314286 7.314286 21.942857 14.628571 29.257143 14.628571 14.628571 0 21.942857-7.314286 36.571429-14.628571 21.942857-7.314286 21.942857-36.571429 0-58.514286z m-592.457143-197.485714c-182.857143 0-329.142857-146.285714-329.142857-329.142857s146.285714-329.142857 329.142857-329.142857 329.142857 146.285714 329.142857 329.142857-146.285714 329.142857-329.142857 329.142857z" fill="#ffffff" p-id="30457"></path></svg>