<?xml version="1.0" standalone="no"?><!DOCTYPE svg PUBLIC "-//W3C//DTD SVG 1.1//EN" "http://www.w3.org/Graphics/SVG/1.1/DTD/svg11.dtd"><svg t="1744781251542" class="icon" viewBox="0 0 1157 1024" version="1.1" xmlns="http://www.w3.org/2000/svg" p-id="44398" xmlns:xlink="http://www.w3.org/1999/xlink" width="225.9765625" height="200"><path d="M1076.224 661.459478h1.424696l2.092521 0.133565-3.561739-0.133565c2.31513 0 4.541217 0.178087 6.678261 0.489739l1.78087 0.356174a44.432696 44.432696 0 0 1 21.058782 77.022609l-250.078608 249.989565a44.521739 44.521739 0 0 1-62.95374-62.953739l175.86087-175.860869H96.745739a44.521739 44.521739 0 0 1 0-89.043479h979.478261zM316.994783 65.179826A44.521739 44.521739 0 0 1 380.037565 128.222609l-177.196522 177.107478h873.382957a44.521739 44.521739 0 0 1 0 89.043478h-979.478261a44.521739 44.521739 0 0 1-44.521739-42.518261v-1.246608-0.75687l-0.044522-0.756869a44.388174 44.388174 0 0 1 13.000348-32.011131z" fill="#ffffff" p-id="44399"></path></svg>