<?xml version="1.0" standalone="no"?><!DOCTYPE svg PUBLIC "-//W3C//DTD SVG 1.1//EN" "http://www.w3.org/Graphics/SVG/1.1/DTD/svg11.dtd"><svg t="1744781078800" class="icon" viewBox="0 0 1024 1024" version="1.1" xmlns="http://www.w3.org/2000/svg" p-id="40247" xmlns:xlink="http://www.w3.org/1999/xlink" width="200" height="200"><path d="M162.816 637.952l-34.304 100.864 120.32-58.88c39.424 9.728 79.872 15.36 120.32 16.896 10.752 0 21.504-0.512 32.256-1.536-7.168-23.04-10.752-46.592-10.752-70.144 0-146.944 129.024-265.728 292.352-265.728 11.264 0 22.016 0.512 33.28 2.048-29.184-133.12-173.568-232.96-338.944-236.032h-15.36C178.176 128.512 28.672 250.368 25.6 406.016v10.752c2.048 89.6 53.248 163.328 137.216 221.184z m335.872-369.664c22.016-1.536 41.472 14.848 43.008 36.864v5.12c1.024 22.016-15.872 40.96-38.4 41.984h-4.608a48.128 48.128 0 0 1-51.712-41.984c3.072-25.6 26.112-44.544 51.712-41.984z m-241.152 0c22.016-2.048 41.472 14.848 43.008 36.864v5.12c1.024 22.016-15.872 40.96-37.888 41.984h-5.12c-25.6 0-51.712-16.896-51.712-41.984 0-25.6 26.112-41.984 51.712-41.984z m0 0" fill="#06BA13" p-id="40248"></path><path d="M705.536 377.344c-163.84 0-292.864 109.568-292.864 243.712 0 134.144 129.024 243.712 292.864 243.712 34.816-1.536 69.632-7.168 103.424-16.896l94.208 50.688-25.6-83.968c69.12-50.688 120.32-117.76 120.32-193.536v-6.144c-4.096-131.072-140.288-237.568-292.352-237.568z m-95.232 201.728a36.864 36.864 0 0 1-34.304-33.792c1.536-18.432 16.384-32.256 34.304-33.792 20.992-2.56 40.448 12.288 43.008 33.792-2.56 21.504-22.016 36.352-43.008 33.792z m189.44 0a36.864 36.864 0 0 1-34.304-33.792c1.536-17.92 15.872-32.256 34.304-33.792 20.992-2.048 39.936 12.8 43.008 33.792-2.56 21.504-22.016 36.352-43.008 33.792z m0 0" fill="#06BA13" p-id="40249"></path><path d="M258.048 312.832m-55.296 0a55.296 55.296 0 1 0 110.592 0 55.296 55.296 0 1 0-110.592 0Z" fill="#FFFFFF" p-id="40250"></path><path d="M502.272 312.832m-55.296 0a55.296 55.296 0 1 0 110.592 0 55.296 55.296 0 1 0-110.592 0Z" fill="#FFFFFF" p-id="40251"></path><path d="M613.376 534.528m-44.544 0a44.544 44.544 0 1 0 89.088 0 44.544 44.544 0 1 0-89.088 0Z" fill="#FFFFFF" p-id="40252"></path><path d="M801.792 545.792m-44.544 0a44.544 44.544 0 1 0 89.088 0 44.544 44.544 0 1 0-89.088 0Z" fill="#FFFFFF" p-id="40253"></path></svg>