<svg t="1741254682200" class="icon" viewBox="0 0 1024 1024" version="1.1" xmlns="http://www.w3.org/2000/svg" p-id="10280" width="200" height="200"><path d="M909.824 794.112h-276.48c-10.752 0-19.456-8.704-19.456-19.456s8.704-19.456 19.456-19.456h276.48c10.752 0 19.456 8.704 19.456 19.456s-8.704 19.456-19.456 19.456z" fill="#666666" p-id="10281"></path><path d="M771.584 932.352c-10.752 0-19.456-8.704-19.456-19.456v-276.48c0-10.752 8.704-19.456 19.456-19.456s19.456 8.704 19.456 19.456v276.48c0 10.752-8.704 19.456-19.456 19.456zM498.688 559.616C367.616 559.616 261.12 453.12 261.12 322.048s106.496-237.568 237.568-237.568c131.072 0 237.568 106.496 237.568 237.568s-106.496 237.568-237.568 237.568z m0-408.576C404.48 151.04 327.68 227.84 327.68 322.048s76.8 171.008 171.008 171.008 171.008-76.8 171.008-171.008-76.8-171.008-171.008-171.008z" fill="#666666" p-id="10282"></path><path d="M102.4 943.616c-18.432 0-33.28-14.848-33.28-33.28 0-229.376 186.88-416.256 416.256-416.256 88.576 0 173.568 27.648 245.248 79.872 14.848 10.752 17.92 31.744 7.168 46.592-10.752 14.848-31.744 17.92-46.592 7.168-60.416-44.032-131.584-67.584-206.336-67.584-193.024 0-349.696 156.672-349.696 349.696 0.512 18.944-14.336 33.792-32.768 33.792z" fill="#666666" p-id="10283"></path></svg>