<svg width="100" height="100" viewBox="0 0 100 100" xmlns="http://www.w3.org/2000/svg">
  <defs>
    <linearGradient id="aiGradient" x1="0%" y1="0%" x2="100%" y2="100%">
      <stop offset="0%" stop-color="#0B67EC" />
      <stop offset="100%" stop-color="#7342CC" />
    </linearGradient>
    <filter id="aiGlow" x="-20%" y="-20%" width="140%" height="140%">
      <feGaussianBlur stdDeviation="2" result="blur" />
      <feComposite in="SourceGraphic" in2="blur" operator="over" />
    </filter>
  </defs>
  <!-- 大脑图标 -->
  <g filter="url(#aiGlow)">
    <path d="M50,20 C65,20 75,35 75,50 C75,65 65,80 50,80 C35,80 25,65 25,50 C25,35 35,20 50,20 Z" fill="none" stroke="url(#aiGradient)" stroke-width="2" />
    <!-- 脑回路 -->
    <path d="M40,30 C45,35 45,45 40,50 C35,55 35,65 40,70" fill="none" stroke="url(#aiGradient)" stroke-width="2" />
    <path d="M60,30 C55,35 55,45 60,50 C65,55 65,65 60,70" fill="none" stroke="url(#aiGradient)" stroke-width="2" />
    <path d="M35,50 L65,50" fill="none" stroke="url(#aiGradient)" stroke-width="2" />
  </g>
  <!-- 音符装饰 -->
  <g opacity="0.7">
    <circle cx="30" cy="35" r="3" fill="url(#aiGradient)" />
    <circle cx="70" cy="35" r="3" fill="url(#aiGradient)" />
    <circle cx="30" cy="65" r="3" fill="url(#aiGradient)" />
    <circle cx="70" cy="65" r="3" fill="url(#aiGradient)" />
    <!-- 连接线 -->
    <path d="M30,35 L40,30" fill="none" stroke="url(#aiGradient)" stroke-width="1" />
    <path d="M70,35 L60,30" fill="none" stroke="url(#aiGradient)" stroke-width="1" />
    <path d="M30,65 L40,70" fill="none" stroke="url(#aiGradient)" stroke-width="1" />
    <path d="M70,65 L60,70" fill="none" stroke="url(#aiGradient)" stroke-width="1" />
  </g>
</svg>