<svg width="1000" height="1000" viewBox="0 0 1000 1000" xmlns="http://www.w3.org/2000/svg">
  <defs>
    <linearGradient id="bgGradient" x1="0%" y1="0%" x2="100%" y2="100%">
      <stop offset="0%" stop-color="#0B67EC" stop-opacity="0.1" />
      <stop offset="50%" stop-color="#7342CC" stop-opacity="0.05" />
      <stop offset="100%" stop-color="#121212" stop-opacity="0.1" />
    </linearGradient>
    <radialGradient id="glowEffect" cx="50%" cy="50%" r="50%" fx="50%" fy="50%">
      <stop offset="0%" stop-color="#7342CC" stop-opacity="0.2" />
      <stop offset="100%" stop-color="#121212" stop-opacity="0" />
    </radialGradient>
    <filter id="blurEffect" x="-50%" y="-50%" width="200%" height="200%">
      <feGaussianBlur in="SourceGraphic" stdDeviation="30" />
    </filter>
  </defs>
  <rect x="0" y="0" width="1000" height="1000" fill="#121212" />
  <circle cx="200" cy="200" r="300" fill="url(#glowEffect)" filter="url(#blurEffect)" />
  <circle cx="800" cy="800" r="400" fill="url(#glowEffect)" filter="url(#blurEffect)" />
  <rect x="0" y="0" width="1000" height="1000" fill="url(#bgGradient)" />
  <g opacity="0.05">
    <circle cx="100" cy="100" r="2" fill="#FFFFFF" />
    <circle cx="300" cy="200" r="2" fill="#FFFFFF" />
    <circle cx="500" cy="100" r="2" fill="#FFFFFF" />
    <circle cx="700" cy="300" r="2" fill="#FFFFFF" />
    <circle cx="900" cy="100" r="2" fill="#FFFFFF" />
    <circle cx="200" cy="400" r="2" fill="#FFFFFF" />
    <circle cx="400" cy="500" r="2" fill="#FFFFFF" />
    <circle cx="600" cy="400" r="2" fill="#FFFFFF" />
    <circle cx="800" cy="600" r="2" fill="#FFFFFF" />
    <circle cx="100" cy="700" r="2" fill="#FFFFFF" />
    <circle cx="300" cy="800" r="2" fill="#FFFFFF" />
    <circle cx="500" cy="700" r="2" fill="#FFFFFF" />
    <circle cx="700" cy="900" r="2" fill="#FFFFFF" />
    <circle cx="900" cy="700" r="2" fill="#FFFFFF" />
  </g>
</svg>