<svg t="1743402045315" class="icon" viewBox="0 0 1024 1024" version="1.1" xmlns="http://www.w3.org/2000/svg" p-id="2727" width="200" height="200"><path d="M180.053333 957.44c-34.133333 0-61.44-27.306667-61.44-61.44V128c0-34.133333 27.306667-61.44 61.44-61.44h665.6c34.133333 0 61.44 27.306667 61.44 61.44v768c0 34.133333-27.306667 61.44-61.44 61.44h-665.6z m0-870.4c-22.186667 0-40.96 18.773333-40.96 40.96v768c0 22.186667 18.773333 40.96 40.96 40.96h665.6c22.186667 0 40.96-18.773333 40.96-40.96V128c0-22.186667-18.773333-40.96-40.96-40.96h-665.6z" p-id="2728"></path><path d="M365.226667 447.146667c-5.973333 0-10.24-4.266667-10.24-10.24s4.266667-10.24 10.24-10.24h51.2c5.973333 0 10.24 4.266667 10.24 10.24s-4.266667 10.24-10.24 10.24h-51.2zM365.226667 528.213333c-5.973333 0-10.24-4.266667-10.24-10.24s4.266667-10.24 10.24-10.24h51.2c5.973333 0 10.24 4.266667 10.24 10.24s-4.266667 10.24-10.24 10.24h-51.2zM365.226667 609.28c-5.973333 0-10.24-4.266667-10.24-10.24s4.266667-10.24 10.24-10.24h51.2c5.973333 0 10.24 4.266667 10.24 10.24s-4.266667 10.24-10.24 10.24h-51.2zM502.613333 447.146667c-5.973333 0-10.24-4.266667-10.24-10.24s4.266667-10.24 10.24-10.24h170.666667c5.973333 0 10.24 4.266667 10.24 10.24s-4.266667 10.24-10.24 10.24h-170.666667zM502.613333 528.213333c-5.973333 0-10.24-4.266667-10.24-10.24s4.266667-10.24 10.24-10.24h170.666667c5.973333 0 10.24 4.266667 10.24 10.24s-4.266667 10.24-10.24 10.24h-170.666667zM502.613333 609.28c-5.973333 0-10.24-4.266667-10.24-10.24s4.266667-10.24 10.24-10.24h170.666667c5.973333 0 10.24 4.266667 10.24 10.24s-4.266667 10.24-10.24 10.24h-170.666667zM365.226667 690.346667c-5.973333 0-10.24-4.266667-10.24-10.24s4.266667-10.24 10.24-10.24h51.2c5.973333 0 10.24 4.266667 10.24 10.24s-4.266667 10.24-10.24 10.24h-51.2zM502.613333 690.346667c-5.973333 0-10.24-4.266667-10.24-10.24s4.266667-10.24 10.24-10.24h170.666667c5.973333 0 10.24 4.266667 10.24 10.24s-4.266667 10.24-10.24 10.24h-170.666667zM500.053333 227.84c-5.973333 0-10.24-4.266667-10.24-10.24s4.266667-10.24 10.24-10.24h28.16c5.973333 0 10.24 4.266667 10.24 10.24s-4.266667 10.24-10.24 10.24h-28.16zM471.04 296.96c-4.266667 0-7.68-2.56-9.386667-5.973333-1.706667-5.12 0-11.093333 5.973334-13.653334l42.666666-17.066666c0.853333-0.853333 2.56-0.853333 4.266667-0.853334s2.56 0 4.266667 0.853334l42.666666 17.066666c5.12 1.706667 7.68 8.533333 5.973334 13.653334-1.706667 4.266667-5.12 5.973333-9.386667 5.973333-1.706667 0-2.56 0-4.266667-0.853333l-39.253333-16.213334-39.253333 16.213334c-1.706667 0.853333-3.413333 0.853333-4.266667 0.853333z" p-id="2729"></path><path d="M715.093333 914.773333c-2.56 0-4.266667-0.853333-5.973333-1.706666-3.413333-2.56-5.12-5.973333-4.266667-10.24l7.68-48.64H232.106667c-5.973333 0-10.24-4.266667-10.24-10.24V277.333333c0-5.973333 4.266667-10.24 10.24-10.24h169.813333c-0.853333-4.266667-0.853333-7.68-0.853333-11.093333 0-19.626667 5.12-38.4 14.506666-55.466667H232.106667c-5.973333 0-10.24-4.266667-10.24-10.24s4.266667-10.24 10.24-10.24h198.826666c21.333333-23.893333 52.053333-36.693333 82.773334-36.693333s61.44 13.653333 82.773333 36.693333h198.826667c5.973333 0 10.24 4.266667 10.24 10.24s-4.266667 10.24-10.24 10.24H611.84c9.386667 17.066667 14.506667 35.84 14.506667 55.466667 0 3.413333 0 7.68-0.853334 11.093333h169.813334c5.973333 0 10.24 4.266667 10.24 10.24v497.493334l0.853333 1.706666 58.88 8.533334c4.266667 0.853333 6.826667 3.413333 8.533333 6.826666 0.853333 3.413333 0 7.68-2.56 10.24l-41.813333 41.813334 10.24 58.88c0.853333 4.266667-0.853333 7.68-4.266667 10.24-1.706667 1.706667-4.266667 1.706667-5.973333 1.706666-1.706667 0-3.413333 0-4.266667-0.853333l-52.906666-27.306667-52.053334 28.16h-5.12z m17.066667-81.066666c0.853333 0 0.853333 0.853333 0.853333 1.706666 1.706667 2.56 2.56 5.12 1.706667 7.68l-6.826667 43.52 39.253334-20.48c1.706667-0.853333 3.413333-0.853333 5.12-0.853333 1.706667 0 3.413333 0 5.12 0.853333l39.253333 20.48-7.68-43.52c-0.853333-3.413333 0.853333-6.826667 2.56-9.386666l31.573333-30.72-43.52-5.973334c-3.413333-0.853333-5.973333-2.56-7.68-5.12L771.413333 750.933333l-18.773333 39.253334c-1.706667 3.413333-4.266667 5.12-7.68 5.973333l-43.52 6.826667 30.72 30.72z m-28.16 0.853333l-32.426667-30.72c-2.56-2.56-4.266667-6.826667-2.56-10.24 0.853333-3.413333 4.266667-6.826667 8.533334-6.826667l58.88-9.386666 25.6-53.76c1.706667-3.413333 5.12-5.973333 9.386666-5.973334 4.266667 0 7.68 2.56 9.386667 5.973334L785.066667 733.866667V287.573333H622.08c-14.506667 47.786667-58.026667 81.066667-107.52 81.066667s-93.866667-33.28-107.52-81.066667H242.346667v546.986667h461.653333zM513.706667 163.84c-20.48 0-40.106667 6.826667-56.32 19.626667-5.973333 5.12-11.946667 10.24-16.213334 17.066666-12.8 16.213333-18.773333 35.84-18.773333 56.32 0 4.266667 0 7.68 0.853333 12.8 0.853333 5.973333 2.56 11.093333 4.266667 17.066667 12.8 37.546667 47.786667 62.293333 87.04 62.293333S588.8 324.266667 601.6 286.72c1.706667-5.12 3.413333-11.093333 4.266667-17.066667V256c0-20.48-6.826667-39.253333-18.773334-56.32-5.12-5.973333-10.24-11.946667-16.213333-17.066667-17.066667-12.8-36.693333-18.773333-57.173333-18.773333z" p-id="2730"></path></svg>