<svg width="100" height="100" viewBox="0 0 100 100" xmlns="http://www.w3.org/2000/svg">
  <defs>
    <linearGradient id="iconGradient" x1="0%" y1="0%" x2="100%" y2="100%">
      <stop offset="0%" stop-color="#0B67EC" />
      <stop offset="100%" stop-color="#7342CC" />
    </linearGradient>
    <filter id="glow" x="-20%" y="-20%" width="140%" height="140%">
      <feGaussianBlur stdDeviation="2" result="blur" />
      <feComposite in="SourceGraphic" in2="blur" operator="over" />
    </filter>
  </defs>
  <!-- 音符图标 -->
  <g filter="url(#glow)">
    <path d="M65,20 L65,60 C65,65.5 60.5,70 55,70 C49.5,70 45,65.5 45,60 C45,54.5 49.5,50 55,50 C57,50 59,50.5 60,51.5 L60,30 L35,35 L35,70 C35,75.5 30.5,80 25,80 C19.5,80 15,75.5 15,70 C15,64.5 19.5,60 25,60 C27,60 29,60.5 30,61.5 L30,25 L65,20 Z" fill="url(#iconGradient)" />
  </g>
  <!-- 装饰性音波 -->
  <g opacity="0.7">
    <path d="M75,30 Q80,40 75,50" stroke="url(#iconGradient)" stroke-width="2" fill="none" />
    <path d="M80,25 Q90,40 80,55" stroke="url(#iconGradient)" stroke-width="2" fill="none" />
  </g>
</svg>